<svg xmlns="http://www.w3.org/2000/svg" size="40" viewBox="0 0 11 9" fill="none" class="sc-jrrXlR aYaUz"><title>check</title><path d="M10.086.644a.85.85 0 0 0-.604.29C7.329 3.266 5.699 5.2 3.674 7.428L1.449 5.394a.863.863 0 0 0-.3-.18.817.817 0 0 0-.67.058.894.894 0 0 0-.27.23.974.974 0 0 0-.166.324 1.023 1.023 0 0 0 .053.725c.053.11.125.21.213.29l2.856 2.613a.839.839 0 0 0 .607.228.85.85 0 0 0 .588-.28c2.362-2.558 4.046-4.606 6.372-7.125a.975.975 0 0 0 .25-.495 1.021 1.021 0 0 0-.053-.562.935.935 0 0 0-.338-.43.83.83 0 0 0-.505-.146Z" fill="#F0FFFF"></path></svg>
